<?xml version="1.0" encoding="utf-8"?>
<!-- Generator: Adobe Illustrator 18.1.1, SVG Export Plug-In . SVG Version: 6.00 Build 0)  -->
<svg version="1.1" id="Layer_1" xmlns="http://www.w3.org/2000/svg" xmlns:xlink="http://www.w3.org/1999/xlink" x="0px" y="0px"
	 viewBox="0 0 149.1 71" enable-background="new 0 0 149.1 71" xml:space="preserve">
<g>
	<circle fill="#4B5763" cx="35.5" cy="35.5" r="35.5"/>
	<path fill="#3C444F" d="M35.5,0L35.5,0v71l0,0C55.1,71,71,55.1,71,35.5C71,15.9,55.1,0,35.5,0z"/>
	<path fill="#FFFFFF" d="M35.5,68.8c-18.3,0-33.2-14.9-33.2-33.2S17.2,2.3,35.5,2.3s33.2,14.9,33.2,33.2S53.8,68.8,35.5,68.8z"/>
	<path fill="#E3E2E2" d="M35.5,2.3L35.5,2.3v66.5l0,0c18.3,0,33.2-14.9,33.2-33.2S53.8,2.3,35.5,2.3z"/>
	<g>
		<g>
			<path fill="#6ACAD8" d="M148.2,32.3l-9.7-6.7c-1.2-0.8-2.2-0.3-2.2,1.2l0,4.1c-3.5,0.5-7.4,1.5-11.9,2.8
				C112.6,36.8,97,41,79,36.7c-0.1,2.1-0.3,4.1-0.6,6.1c5.7,1.3,11.2,1.8,16.4,1.8c12.1,0,22.7-2.8,31.3-5.2c3.9-1.1,7.4-2,10.4-2.5
				l0,4.1c0,1.5,1,2,2.2,1.1l9.5-6.8C149.4,34.5,149.4,33.1,148.2,32.3z"/>
			<path fill="#6ACAD8" d="M148.2,54.2l-9.7-6.7c-1.2-0.8-2.2-0.3-2.2,1.2l0,4.1c-3.5,0.5-7.4,1.5-11.9,2.8
				c-13.1,3.5-30.8,8.3-51.2,1.5c-1,1.8-2.2,3.6-3.5,5.2c8.9,3.2,17.3,4.4,25,4.4c12.1,0,22.7-2.8,31.3-5.2c3.9-1.1,7.4-2,10.4-2.5
				l0,4.1c0,1.5,1,2,2.2,1.1l9.5-6.8C149.4,56.4,149.4,55,148.2,54.2z"/>
			<path fill="#6ACAD8" d="M94.7,23.9c12.1,0,22.7-2.8,31.3-5.2c3.9-1.1,7.4-2,10.4-2.5l0,4.1c0,1.5,1,2,2.2,1.1l9.5-6.8
				c1.2-0.9,1.2-2.3,0-3.1l-9.7-6.7c-1.2-0.8-2.2-0.3-2.2,1.2l0,4.1c-3.5,0.5-7.4,1.5-11.9,2.8c-13,3.5-30.6,8.3-51,1.6
				c1.3,2.3,2.4,4.7,3.2,7.3C83,23.3,89.1,23.9,94.7,23.9z"/>
		</g>
	</g>
	<path fill="#6ACAD8" d="M58.7,37.5h-4.4l3.5,3.5c0.5,0.5,0.5,1.3,0,1.8c-0.5,0.5-1.3,0.5-1.8,0l-5.4-5.4H39.9l5.8,5.8h3.7
		c0.4,0,0.7,0.3,0.7,0.7c0,0.4-0.3,0.7-0.7,0.7h-2.3l1.2,1.2c0.5,0.5,0.5,1.3,0,1.8c-0.5,0.5-1.3,0.5-1.8,0L45,46.2v2.9
		c0,0.4-0.3,0.7-0.7,0.7c-0.4,0-0.7-0.3-0.7-0.7V45c0,0,0-0.1,0-0.1l-5.5-5.5v11.3l5.1,5.1c0.5,0.5,0.5,1.3,0,1.8
		c-0.5,0.5-1.3,0.5-1.8,0l-3.3-3.3v3.8c0,1.4-1.2,2.6-2.6,2.6c-1.4,0-2.6-1.2-2.6-2.6v-3.8l-3.3,3.3c-0.5,0.5-1.3,0.5-1.8,0
		c-0.5-0.5-0.5-1.3,0-1.8l5.1-5.1V39.4l-5.4,5.4c0,0.1,0,0.1,0,0.2v4.2c0,0.4-0.3,0.7-0.7,0.7c-0.4,0-0.7-0.3-0.7-0.7v-3l-1.6,1.6
		c-0.5,0.5-1.3,0.5-1.8,0c-0.5-0.5-0.5-1.3,0-1.8l1.2-1.2h-2.2c-0.4,0-0.7-0.3-0.7-0.7c0-0.4,0.3-0.7,0.7-0.7h3.6l5.8-5.8H20.3
		l-5.4,5.4c-0.5,0.5-1.3,0.5-1.8,0c-0.5-0.5-0.5-1.3,0-1.8l3.5-3.5h-4.3c-1.4,0-2.6-1.2-2.6-2.6c0-1.4,1.2-2.6,2.6-2.6h3.8l-3-3
		c-0.5-0.5-0.5-1.3,0-1.8c0.5-0.5,1.3-0.5,1.8,0l4.8,4.8h11.4l-4.9-4.9h-4c-0.4,0-0.7-0.3-0.7-0.7c0-0.4,0.3-0.7,0.7-0.7h2.6
		L22.7,24c-0.5-0.5-0.5-1.3,0-1.8c0.5-0.5,1.3-0.5,1.8,0l2.1,2.1v-2.6c0-0.4,0.3-0.7,0.7-0.7c0.4,0,0.7,0.3,0.7,0.7v4l4.9,4.9V20
		l-5.1-5.1c-0.5-0.5-0.5-1.3,0-1.8c0.5-0.5,1.3-0.5,1.8,0l3.3,3.3v-4.7c0-1.4,1.2-2.6,2.6-2.6c1.4,0,2.6,1.2,2.6,2.6v4.7l3.3-3.3
		c0.5-0.5,1.3-0.5,1.8,0c0.5,0.5,0.5,1.3,0,1.8L38.1,20v10.5l5.5-5.5v-3.9c0-0.4,0.3-0.7,0.7-0.7c0.4,0,0.7,0.3,0.7,0.7v2.5l1.5-1.5
		c0.5-0.5,1.3-0.5,1.8,0c0.5,0.5,0.5,1.3,0,1.8l-1.6,1.6h2.7c0.4,0,0.7,0.3,0.7,0.7S49.8,27,49.4,27h-4.1l-5.4,5.4h11.3l4.8-4.8
		c0.5-0.5,1.3-0.5,1.8,0c0.5,0.5,0.5,1.3,0,1.8l-3,3h3.8c1.4,0,2.6,1.2,2.6,2.6C61.3,36.4,60.2,37.5,58.7,37.5z"/>
	<path fill="#5AB4BB" d="M58.7,32.4h-3.8l3-3c0.5-0.5,0.5-1.3,0-1.8c-0.5-0.5-1.3-0.5-1.8,0l-4.8,4.8H39.9l5.4-5.4h4.1
		c0.4,0,0.7-0.3,0.7-0.7s-0.3-0.7-0.7-0.7h-2.7l1.6-1.6c0.5-0.5,0.5-1.3,0-1.8c-0.5-0.5-1.3-0.5-1.8,0L45,23.7v-2.5
		c0-0.4-0.3-0.7-0.7-0.7c-0.4,0-0.7,0.3-0.7,0.7v3.9l-5.5,5.5V20l5.1-5.1c0.5-0.5,0.5-1.3,0-1.8c-0.5-0.5-1.3-0.5-1.8,0l-3.3,3.3
		v-4.7c0-1.4-1.2-2.6-2.6-2.6v51.6c1.4,0,2.6-1.2,2.6-2.6v-3.8l3.3,3.3c0.5,0.5,1.3,0.5,1.8,0c0.5-0.5,0.5-1.3,0-1.8l-5.1-5.1V39.4
		l5.5,5.5c0,0,0,0.1,0,0.1v4.2c0,0.4,0.3,0.7,0.7,0.7c0.4,0,0.7-0.3,0.7-0.7v-2.9l1.5,1.5c0.5,0.5,1.3,0.5,1.8,0
		c0.5-0.5,0.5-1.3,0-1.8l-1.2-1.2h2.3c0.4,0,0.7-0.3,0.7-0.7c0-0.4-0.3-0.7-0.7-0.7h-3.7l-5.8-5.8h10.8l5.4,5.4
		c0.5,0.5,1.3,0.5,1.8,0c0.5-0.5,0.5-1.3,0-1.8l-3.5-3.5h4.4c1.4,0,2.6-1.2,2.6-2.6C61.3,33.5,60.2,32.4,58.7,32.4z"/>
</g>
</svg>
