<?xml version="1.0" encoding="utf-8"?>
<!-- Generator: Adobe Illustrator 18.1.1, SVG Export Plug-In . SVG Version: 6.00 Build 0)  -->
<svg version="1.1" id="Layer_1" xmlns="http://www.w3.org/2000/svg" xmlns:xlink="http://www.w3.org/1999/xlink" x="0px" y="0px"
	 viewBox="0 0 149.1 71" enable-background="new 0 0 149.1 71" xml:space="preserve">
<g>
	<circle fill="#4B5763" cx="35.5" cy="35.5" r="35.5"/>
	<path fill="#3C444F" d="M35.5,0v71C55.1,71,71,55.1,71,35.5C71,15.9,55.1,0,35.5,0z"/>
	<path fill="#FFFFFF" d="M35.5,68.8c-18.3,0-33.2-14.9-33.2-33.2S17.2,2.3,35.5,2.3c18.3,0,33.2,14.9,33.2,33.2S53.8,68.8,35.5,68.8
		z"/>
	<path fill="#E3E2E2" d="M35.5,2.3L35.5,2.3l0,66.5h0c18.3,0,33.2-14.9,33.2-33.2S53.8,2.3,35.5,2.3z"/>
	<path fill="#F05A24" d="M148.2,54.2l-9.7-6.7c-1.2-0.8-2.2-0.3-2.2,1.2l0,4.1c-3.5,0.5-7.4,1.5-11.9,2.8
		c-13.1,3.5-30.8,8.3-51.2,1.5c-1,1.8-2.2,3.6-3.5,5.2c8.9,3.2,17.3,4.4,25,4.4c12.1,0,22.7-2.8,31.3-5.2c3.9-1.1,7.4-2,10.4-2.5
		l0,4.1c0,1.5,1,2,2.2,1.1l9.5-6.8C149.4,56.4,149.4,55,148.2,54.2z"/>
	<path fill="#F05A24" d="M94.7,23.9c12.1,0,22.7-2.8,31.3-5.2c3.9-1.1,7.4-2,10.4-2.5l0,4.1c0,1.5,1,2,2.2,1.1l9.5-6.8
		c1.2-0.9,1.2-2.3,0-3.1l-9.7-6.7c-1.2-0.8-2.2-0.3-2.2,1.2l0,4.1c-3.5,0.5-7.4,1.5-11.9,2.8c-13,3.5-30.6,8.3-51,1.6
		c1.3,2.3,2.4,4.7,3.2,7.3C83,23.3,89.1,23.9,94.7,23.9z"/>
	<path fill="#FFCE00" d="M34,15.4v-4.2c0-0.9,0.7-1.6,1.6-1.6c0.9,0,1.6,0.7,1.6,1.6v4.2v0c0,0.5-0.2,0.9-0.6,1.2
		c-0.3,0.2-0.6,0.4-1,0.4h0h0C34.7,17,34,16.3,34,15.4L34,15.4z"/>
	<path fill="#FFCE00" d="M18.2,18.2c0.3-0.3,0.6-0.4,1-0.4c0.4,0,0.8,0.2,1,0.4l2.7,2.7c0.3,0.3,0.4,0.6,0.4,1c0,0.4-0.2,0.8-0.4,1
		c-0.6,0.6-1.5,0.6-2.1,0l-2.7-2.7c-0.3-0.3-0.4-0.6-0.4-1C17.8,18.9,18,18.5,18.2,18.2z"/>
	<path fill="#FFCE00" d="M15.4,37.1h-4.2c-0.9,0-1.6-0.7-1.6-1.6c0-0.9,0.7-1.6,1.6-1.6h4.2c0.9,0,1.6,0.7,1.6,1.6
		C17,36.4,16.3,37.1,15.4,37.1z"/>
	<path fill="#FFCE00" d="M23,50.1l-2.7,2.7c-0.6,0.6-1.5,0.6-2.1,0c-0.3-0.3-0.4-0.6-0.4-1c0-0.4,0.2-0.8,0.4-1l2.7-2.7
		c0.3-0.3,0.6-0.4,1-0.4c0.4,0,0.8,0.2,1,0.4c0.3,0.3,0.4,0.6,0.4,1C23.4,49.5,23.2,49.9,23,50.1z"/>
	<path fill="#FFCE00" d="M37.1,59.8L37.1,59.8c0,0.4-0.1,0.7-0.3,0.9c-0.3,0.4-0.7,0.6-1.2,0.6h0h0c-0.9,0-1.6-0.7-1.6-1.5v0v-4.2
		c0-0.2,0-0.4,0.1-0.6c0,0,0,0,0-0.1c0.2-0.6,0.8-0.9,1.4-0.9c0.9,0,1.6,0.7,1.6,1.6V59.8z"/>
	<path fill="#FFCE00" d="M35.5,50.4c-8.2,0-14.9-6.7-14.9-14.9c0-8.2,6.7-14.9,14.9-14.9c8.2,0,14.9,6.7,14.9,14.9
		C50.4,43.8,43.8,50.4,35.5,50.4z"/>
	<path fill="#FFCE00" d="M52.8,52.8c-0.6,0.6-1.5,0.6-2.1,0l-2.7-2.7c-0.3-0.3-0.4-0.6-0.4-1c0-0.4,0.2-0.8,0.4-1
		c0.3-0.3,0.6-0.4,1-0.4c0.4,0,0.8,0.2,1,0.4l2.7,2.7c0.3,0.3,0.4,0.6,0.4,1C53.2,52.1,53.1,52.5,52.8,52.8z"/>
	<path fill="#FFCE00" d="M52.8,20.3L50.1,23c-0.6,0.6-1.5,0.6-2.1,0c-0.3-0.3-0.4-0.6-0.4-1c0-0.4,0.2-0.8,0.4-1l2.7-2.7
		c0.3-0.3,0.6-0.4,1-0.4c0.4,0,0.8,0.2,1,0.4c0.3,0.3,0.4,0.6,0.4,1C53.2,19.7,53.1,20,52.8,20.3z"/>
	<path fill="#FFCE00" d="M59.8,37.1h-4.2c-0.9,0-1.6-0.7-1.6-1.6c0-0.9,0.7-1.6,1.6-1.6h4.2c0.9,0,1.6,0.7,1.6,1.6
		C61.3,36.4,60.6,37.1,59.8,37.1z"/>
	<path fill="#FFCE00" d="M18.2,18.2c0.3-0.3,0.6-0.4,1-0.4c0.4,0,0.8,0.2,1,0.4l2.7,2.7c0.3,0.3,0.4,0.6,0.4,1c0,0.4-0.2,0.8-0.4,1
		c-0.6,0.6-1.5,0.6-2.1,0l-2.7-2.7c-0.3-0.3-0.4-0.6-0.4-1C17.8,18.9,18,18.5,18.2,18.2z"/>
	<path fill="#FFCE00" d="M15.4,37.1h-4.2c-0.9,0-1.6-0.7-1.6-1.6c0-0.9,0.7-1.6,1.6-1.6h4.2c0.9,0,1.6,0.7,1.6,1.6
		C17,36.4,16.3,37.1,15.4,37.1z"/>
	<path fill="#FFCE00" d="M23,50.1l-2.7,2.7c-0.6,0.6-1.5,0.6-2.1,0c-0.3-0.3-0.4-0.6-0.4-1c0-0.4,0.2-0.8,0.4-1l2.7-2.7
		c0.3-0.3,0.6-0.4,1-0.4c0.4,0,0.8,0.2,1,0.4c0.3,0.3,0.4,0.6,0.4,1C23.4,49.5,23.2,49.9,23,50.1z"/>
	<path opacity="0.4" fill="#FFCE00" d="M52.8,52.8c-0.6,0.6-1.5,0.6-2.1,0l-2.7-2.7c-0.3-0.3-0.4-0.6-0.4-1c0-0.4,0.2-0.8,0.4-1
		c0.3-0.3,0.6-0.4,1-0.4c0.4,0,0.8,0.2,1,0.4l2.7,2.7c0.3,0.3,0.4,0.6,0.4,1C53.2,52.1,53.1,52.5,52.8,52.8z"/>
	<path opacity="0.4" fill="#FFCE00" d="M52.8,20.3L50.1,23c-0.6,0.6-1.5,0.6-2.1,0c-0.3-0.3-0.4-0.6-0.4-1c0-0.4,0.2-0.8,0.4-1
		l2.7-2.7c0.3-0.3,0.6-0.4,1-0.4c0.4,0,0.8,0.2,1,0.4c0.3,0.3,0.4,0.6,0.4,1C53.2,19.7,53.1,20,52.8,20.3z"/>
	<path opacity="0.4" fill="#FFCE00" d="M59.8,37.1h-4.2c-0.9,0-1.6-0.7-1.6-1.6c0-0.9,0.7-1.6,1.6-1.6h4.2c0.9,0,1.6,0.7,1.6,1.6
		C61.3,36.4,60.6,37.1,59.8,37.1z"/>
	<path opacity="0.4" fill="#FFCE00" d="M35.5,9.7L35.5,9.7l0,7.3h0h0c0.4,0,0.7-0.1,1-0.4c0.3-0.3,0.6-0.7,0.6-1.2v0v-4.2
		C37.1,10.4,36.4,9.7,35.5,9.7z"/>
	<path opacity="0.4" fill="#FFCE00" d="M35.5,20.6L35.5,20.6l0,29.8h0c8.2,0,14.9-6.7,14.9-14.9C50.4,27.3,43.8,20.6,35.5,20.6z"/>
	<path opacity="0.4" fill="#FFCE00" d="M35.5,54.1L35.5,54.1l0,7.3h0h0c0.5,0,0.9-0.2,1.2-0.6c0.2-0.3,0.3-0.6,0.3-0.9v0v-4.2
		C37.1,54.7,36.4,54.1,35.5,54.1z"/>
	<path fill="#F05A24" d="M148.2,32.3l-9.7-6.7c-1.2-0.8-2.2-0.3-2.2,1.2l0,4.1c-3.5,0.5-7.4,1.5-11.9,2.8C112.6,36.8,97,41,79,36.7
		c-0.1,2.1-0.3,4.1-0.6,6.1c5.7,1.3,11.2,1.8,16.4,1.8c12.1,0,22.7-2.8,31.3-5.2c3.9-1.1,7.4-2,10.4-2.5l0,4.1c0,1.5,1,2,2.2,1.1
		l9.5-6.8C149.4,34.5,149.4,33.1,148.2,32.3z"/>
</g>
</svg>
