<?xml version="1.0" encoding="utf-8"?>
<!-- Generator: Adobe Illustrator 18.1.1, SVG Export Plug-In . SVG Version: 6.00 Build 0)  -->
<svg version="1.1" id="Layer_1" xmlns="http://www.w3.org/2000/svg" xmlns:xlink="http://www.w3.org/1999/xlink" x="0px" y="0px"
	 viewBox="0 0 98.5 93.1" enable-background="new 0 0 98.5 93.1" xml:space="preserve">
<g>
	<path fill="#4B5763" d="M93.1,87.6V40.8c0,0,0,0,0,0v-6.9l-6-3.4l0,56.7H87H11.2V30.6l-6,3.3v53.6c-2.2,0.9-3.8,3.1-3.8,5.6h95.5
		C96.8,90.6,95.2,88.5,93.1,87.6z"/>
	<polygon fill="#FFFFFF" points="87.1,33.9 87,33.9 87,87.1 87,87.1 81.2,87.1 69.9,87.1 61.4,87.1 60.3,87.1 39.4,87.1 11.2,87.1 
		11.2,30.6 49.2,8.6 87.1,30.5 	"/>
	<polygon fill="#E3E2E2" points="49.2,8.6 49.2,87.1 60.3,87.1 61.4,87.1 69.9,87.1 81.2,87.1 87,87.1 87,87.1 87,33.9 87.1,33.9 
		87.1,30.5 	"/>
	<path fill="#C53F3F" d="M93.1,33.9c1.8,0.6,3.8-0.1,4.8-1.8c1.1-1.9,0.4-4.4-1.5-5.5L51.3,0.5C50.7,0.2,50.1,0,49.6,0
		c-0.1,0-0.2,0-0.3,0c-0.1,0-0.2,0-0.3,0c-0.6,0-1.2,0.2-1.7,0.5L2,26.6c-1.9,1.1-2.6,3.6-1.5,5.5c0.9,1.6,2.9,2.3,4.6,1.8l6-3.3
		l38.1-22l37.9,21.9L93.1,33.9z"/>
	<path fill="#AA3838" d="M96.5,26.6L51.3,0.5C50.7,0.2,50.1,0,49.6,0c-0.1,0-0.1,0-0.2,0v8.7l37.7,21.8l6,3.4
		c1.8,0.6,3.8-0.1,4.8-1.8C99,30.2,98.4,27.7,96.5,26.6z"/>
	<path fill="#3C444F" d="M49.1,93.1h47.7c0-2.5-1.5-4.7-3.7-5.6V40.8c0,0,0,0,0,0v-6.9l-6-3.4l0,56.7H87H49.1V93.1z"/>
	<path fill="#5AB4BB" d="M77.4,62l-4.2-6c-0.5-0.8-1.4-0.8-1.9,0L67,62c-0.5,0.8-0.2,1.4,0.7,1.4h2.6v13.1c0,0.6-0.5,1-1,1H52v4.1
		h17.4c2.8,0,5.1-2.3,5.1-5.1V63.4h2.3C77.6,63.4,77.9,62.8,77.4,62z"/>
	<path fill="#6ACAD8" d="M47.7,78.1l-6-4.2c-0.8-0.5-1.4-0.2-1.4,0.7v2.8v0.1H26.9c-0.6,0-1-0.5-1-1V57.8h-4.1v18.7
		c0,2.8,2.3,5.1,5.1,5.1h13.4v1.9c0,0.9,0.6,1.3,1.4,0.7l6-4.2C48.4,79.5,48.4,78.6,47.7,78.1z"/>
	<path fill="#5AB4BB" d="M72.8,27.7c-0.2-0.2-0.3-0.3-0.5-0.4c0,0-0.1-0.1-0.1-0.1c-0.1-0.1-0.2-0.2-0.3-0.2L59,19.2l1.1-1.5
		c0.5-0.8,0.2-1.4-0.7-1.4l-7.3,0c-0.9,0-1.4,0.7-1.1,1.6l2.5,6.9c0.3,0.9,1,1,1.5,0.2l1.6-2.3l0.1-0.2l13.1,7.9
		c0.4,0.2,0.7,0.7,0.6,1.1v3.7v4v10.8h4.1V31.4C74.4,29.9,73.8,28.6,72.8,27.7z"/>
	<path fill="#6ACAD8" d="M28.4,45.7h-2.5v-6.4v-4v-3.7c-0.1-0.4,0.2-0.9,0.6-1.1l14.9-8.9L39.3,18l-14.9,8.9
		c-0.1,0.1-0.2,0.2-0.3,0.2c0,0-0.1,0.1-0.1,0.1c-0.2,0.1-0.4,0.3-0.5,0.4c-1,0.9-1.6,2.2-1.6,3.7v14.3h-2.4c-0.9,0-1.3,0.6-0.7,1.4
		l4.2,6c0.5,0.8,1.4,0.8,1.9,0l4.2-6C29.6,46.3,29.3,45.7,28.4,45.7z"/>
</g>
</svg>
