<?xml version="1.0" encoding="utf-8"?>
<!-- Generator: Adobe Illustrator 18.1.1, SVG Export Plug-In . SVG Version: 6.00 Build 0)  -->
<svg version="1.1" id="Layer_1" xmlns="http://www.w3.org/2000/svg" xmlns:xlink="http://www.w3.org/1999/xlink" x="0px" y="0px"
	 viewBox="0 0 64.3 46.5" enable-background="new 0 0 64.3 46.5" xml:space="preserve">
<path opacity="0.2" fill="#348DC0" d="M30.6,14.7c0,7.8-2.6,14.4-7.9,19.8C17.5,39.9,9.9,43.9,0,46.5v-7c3.2-1,5.9-2.2,8.1-3.8
	c2.3-1.6,4-3.3,5.2-5.2c1.2-1.9,1.8-3.7,1.8-5.4c0-1.2-0.5-2.2-1.4-3.1c-0.9-0.9-2.4-1.8-4.3-2.8c-3.9-2-5.8-5.1-5.8-9.3
	c0-3.1,1.1-5.6,3.3-7.3C9.3,0.9,12.2,0,15.9,0c4.2,0,7.7,1.4,10.5,4.2C29.2,7,30.6,10.5,30.6,14.7z M64.3,14.7
	c0,7.8-2.6,14.4-7.7,19.8c-5.1,5.4-12.7,9.4-22.8,12.1v-7c3.2-1,5.9-2.2,8.1-3.8c2.3-1.6,4-3.3,5.2-5.2S49,27,49,25.3
	c0-1.2-0.5-2.2-1.4-3.1c-0.9-0.9-2.4-1.8-4.3-2.8c-3.9-2-5.8-5.1-5.8-9.3c0-3.1,1.1-5.6,3.3-7.3C43.1,0.9,46,0,49.7,0
	c4.2,0,7.7,1.4,10.5,4.1C62.9,6.8,64.3,10.4,64.3,14.7z"/>
</svg>
