<?xml version="1.0" encoding="utf-8"?>
<!-- Generator: Adobe Illustrator 18.1.1, SVG Export Plug-In . SVG Version: 6.00 Build 0)  -->
<svg version="1.1" id="Layer_1" xmlns="http://www.w3.org/2000/svg" xmlns:xlink="http://www.w3.org/1999/xlink" x="0px" y="0px"
	 viewBox="0 0 83 83" enable-background="new 0 0 83 83" xml:space="preserve">
<g>
	<g>
		<path fill="#EC1C24" d="M53.2,2.5l-3.5,16.4h-1.4C48,14.1,46.9,10.7,45,8.6c-1.9-2.1-4.7-3.1-8.2-3.1c-3.6,0-7.2,1.3-10.8,3.8
			c-3.6,2.5-6.7,6.5-9.2,11.8c-2.5,5.3-3.8,10.9-3.8,16.7c0,5,1.1,8.8,3.4,11.5c2.3,2.6,4.9,4,7.9,4c1.3,0,2.8-0.4,4.7-1.1l3.9-13.5
			c0.7-2.3,1-3.7,1-4.4c0-0.9-0.4-1.7-1.2-2.3c-0.8-0.6-2.1-1-4.1-1l0.4-1.4h22l-0.3,1.4c-1.3,0.1-2.3,0.3-3.1,0.7
			c-0.7,0.4-1.3,1-1.7,1.8c-0.3,0.5-0.6,1.7-1.2,3.7L40,52.8c-5.3,2-10.8,3-16.6,3c-4.5,0-8.3-0.8-11.4-2.4
			c-3.1-1.6-5.8-4.2-7.8-7.7S1,38.1,1,33.6C1,23.9,5.2,16,13.8,9.8c6.7-4.8,14.3-7.3,22.8-7.3c1.5,0,2.8,0.1,4.1,0.2
			c0.9,0.1,2.6,0.5,4.9,1.1c1.5,0.4,2.5,0.6,3.1,0.6c1.1,0,2.1-0.6,3.1-1.8H53.2z"/>
	</g>
	<g>
		<path fill="#3952A3" d="M59.1,32.3l-5.6,19.1c3.8,0,6.3-0.2,7.4-0.4c1.9-0.4,3.5-1.2,5.1-2.4c1.5-1.2,2.8-2.9,3.8-5h1.5l-5.8,19.9
			H64c0.2-1.3,0.4-2.3,0.4-3.1c0-1.5-0.3-2.8-0.9-3.7c-0.6-0.9-1.4-1.5-2.4-1.9c-1-0.3-3.7-0.6-8.2-0.7l-4.5,15.8l-0.9,3.2
			c-0.1,0.6-0.2,1.2-0.2,1.8c0,0.9,0.2,1.6,0.5,2c0.3,0.5,0.9,0.9,1.6,1.2c0.7,0.3,2.2,0.4,4.2,0.5L53.1,80H27.9l0.4-1.4
			c2.4,0,4.2-0.5,5.3-1.4c1.1-0.9,2.1-2.9,3-5.9l9-30.9c0.9-3.3,1.4-5.3,1.5-6.3c0-0.9-0.4-1.6-1.2-2.2c-0.7-0.6-2.3-1-4.6-1.1
			l0.4-1.4H83l-3.4,13.3h-1.4c-0.1-2.8-0.6-4.8-1.3-6.2c-0.7-1.4-1.9-2.4-3.6-3.2c-1.7-0.8-4.3-1.1-7.9-1.1H59.1z"/>
	</g>
</g>
</svg>
