<?xml version="1.0" encoding="utf-8"?>
<!-- Generator: Adobe Illustrator 18.1.1, SVG Export Plug-In . SVG Version: 6.00 Build 0)  -->
<svg version="1.1" id="Layer_1" xmlns="http://www.w3.org/2000/svg" xmlns:xlink="http://www.w3.org/1999/xlink" x="0px" y="0px"
	 viewBox="0 0 139.6 90.5" enable-background="new 0 0 139.6 90.5" xml:space="preserve">
<g>
	<circle fill="#4B5763" cx="76.8" cy="48.3" r="42.2"/>
	<path fill="#3C444F" d="M76.8,6.1L76.8,6.1v84.4l0,0c23.3,0,42.2-18.9,42.2-42.2C119,25,100.1,6.1,76.8,6.1z"/>
	<path fill="#FFFFFF" d="M76.8,85c-20.3,0-36.7-16.5-36.7-36.7c0-20.3,16.5-36.7,36.7-36.7c20.3,0,36.7,16.5,36.7,36.7
		C113.5,68.6,97.1,85,76.8,85z"/>
	<path fill="#E3E2E2" d="M76.8,11.6L76.8,11.6V85l0,0c20.3,0,36.7-16.5,36.7-36.7C113.5,28.1,97.1,11.6,76.8,11.6z"/>
	<path fill="#1484B4" d="M35.7,20.7h-3.2l2.6,2.6c0.4,0.4,0.4,1,0,1.3c-0.4,0.4-1,0.4-1.3,0l-3.9-3.9H22l4.2,4.2h2.7
		c0.3,0,0.5,0.2,0.5,0.5c0,0.3-0.2,0.5-0.5,0.5h-1.7l0.9,0.9c0.4,0.4,0.4,1,0,1.3c-0.4,0.4-1,0.4-1.3,0L25.7,27v2.1
		c0,0.3-0.2,0.5-0.5,0.5c-0.3,0-0.5-0.2-0.5-0.5v-3c0,0,0-0.1,0-0.1l-4-4v8.3l3.7,3.7c0.4,0.4,0.4,1,0,1.3c-0.4,0.4-1,0.4-1.3,0
		l-2.4-2.4v2.8c0,1-0.8,1.9-1.9,1.9c-1,0-1.9-0.8-1.9-1.9v-2.8l-2.4,2.4c-0.4,0.4-1,0.4-1.3,0c-0.4-0.4-0.4-1,0-1.3l3.7-3.7V22
		L13,25.9c0,0,0,0.1,0,0.1v3c0,0.3-0.2,0.5-0.5,0.5c-0.3,0-0.5-0.2-0.5-0.5v-2.2l-1.2,1.2c-0.4,0.4-1,0.4-1.3,0
		c-0.4-0.4-0.4-1,0-1.3l0.9-0.9H8.8c-0.3,0-0.5-0.2-0.5-0.5c0-0.3,0.2-0.5,0.5-0.5h2.6l4.2-4.2H7.7l-3.9,3.9c-0.4,0.4-1,0.4-1.3,0
		c-0.4-0.4-0.4-1,0-1.3L5,20.7H1.9c-1,0-1.9-0.8-1.9-1.9c0-1,0.8-1.9,1.9-1.9h2.8l-2.2-2.2c-0.4-0.4-0.4-1,0-1.3
		c0.4-0.4,1-0.4,1.3,0l3.5,3.5h8.3L12,13.4H9.1c-0.3,0-0.5-0.2-0.5-0.5c0-0.3,0.2-0.5,0.5-0.5H11l-1.5-1.5c-0.4-0.4-0.4-1,0-1.3
		c0.4-0.4,1-0.4,1.3,0l1.5,1.5V9.1c0-0.3,0.2-0.5,0.5-0.5c0.3,0,0.5,0.2,0.5,0.5V12l3.6,3.6V7.9l-3.7-3.7c-0.4-0.4-0.4-1,0-1.3
		c0.4-0.4,1-0.4,1.3,0l2.4,2.4V1.9c0-1,0.8-1.9,1.9-1.9c1,0,1.9,0.8,1.9,1.9v3.4l2.4-2.4c0.4-0.4,1-0.4,1.3,0c0.4,0.4,0.4,1,0,1.3
		l-3.7,3.7v7.7l4-4V8.8c0-0.3,0.2-0.5,0.5-0.5c0.3,0,0.5,0.2,0.5,0.5v1.8l1.1-1.1c0.4-0.4,1-0.4,1.3,0c0.4,0.4,0.4,1,0,1.3L26.9,12
		h2c0.3,0,0.5,0.2,0.5,0.5c0,0.3-0.2,0.5-0.5,0.5h-3L22,16.9h8.3l3.5-3.5c0.4-0.4,1-0.4,1.3,0c0.4,0.4,0.4,1,0,1.3l-2.2,2.2h2.8
		c1,0,1.9,0.8,1.9,1.9C37.6,19.8,36.7,20.7,35.7,20.7z"/>
	<path fill="#F05A24" d="M91.9,62.2l12.4-25.9c0.6-1.3,0.1-1.8-1.2-1.2L77.2,47.5c-1.3,0.6-7.2,2.9-9.2,4.8
		c-5.3,5.3-5.3,13.8,0,19.1c5.3,5.3,13.8,5.3,19.1,0C89,69.4,91.3,63.5,91.9,62.2z"/>
	<circle fill="#4B5763" cx="76.7" cy="62.7" r="6.6"/>
	<path fill="#F05A24" d="M77.5,33.7c2.1,0.4,4.1,1,6,1.8l15.3-4.9c1.1-0.3,2.1-0.5,3.1-0.5c-4.6-4.4-10.4-7.6-17-8.9
		C67.7,17.8,51,27.8,45.7,44.1C53.5,35.6,65.4,31.3,77.5,33.7z"/>
	<path opacity="0.4" fill="#F05A24" d="M84.8,21.2C67.7,17.8,51,27.8,45.7,44.1c0.1-0.2,0.3-0.3,0.4-0.4c7.4-11.5,21.3-17.8,35.4-15
		c3.9,0.8,7.4,2.2,10.7,4.1l6.6-2.1c1.1-0.3,2.1-0.5,3.1-0.5C97.3,25.7,91.5,22.5,84.8,21.2z"/>
	<path opacity="0.4" fill="#F05A24" d="M72,67.3c-2.6-2.6-2.6-6.7,0-9.3c2.6-2.6,6.7-2.6,9.3,0l23-23c-0.2-0.2-0.7-0.2-1.3,0.1
		L77.2,47.5c-1.3,0.6-7.2,2.9-9.2,4.8c-5.3,5.3-5.3,13.8,0,19.1L72,67.3z"/>
	<path fill="#3C444F" d="M81.3,58c-1.3-1.3-3-1.9-4.7-1.9v13.2c1.7,0,3.4-0.6,4.7-1.9C83.9,64.8,83.9,60.6,81.3,58z"/>
	<path fill="#10719C" d="M0,18.8L0,18.8c0,1,0.8,1.9,1.9,1.9H5l-2.6,2.6c-0.4,0.4-0.4,1,0,1.3c0.4,0.4,1,0.4,1.3,0l3.9-3.9h7.9
		l-4.2,4.2H8.8c-0.3,0-0.5,0.2-0.5,0.5c0,0.3,0.2,0.5,0.5,0.5h1.6l-0.9,0.9c-0.4,0.4-0.4,1,0,1.3c0.4,0.4,1,0.4,1.3,0l1.2-1.2v2.2
		c0,0.3,0.2,0.5,0.5,0.5c0.3,0,0.5-0.2,0.5-0.5v-3c0-0.1,0-0.1,0-0.1l3.9-3.9v8.3L13.2,34c-0.4,0.4-0.4,1,0,1.3c0.4,0.4,1,0.4,1.3,0
		l2.4-2.4v2.8c0,1,0.8,1.9,1.9,1.9c1,0,1.9-0.8,1.9-1.9v-2.8l2.4,2.4c0.4,0.4,1,0.4,1.3,0c0.4-0.4,0.4-1,0-1.3l-3.7-3.7V22l4,4
		c0,0,0,0.1,0,0.1v3c0,0.3,0.2,0.5,0.5,0.5c0.3,0,0.5-0.2,0.5-0.5V27l1.1,1.1c0.4,0.4,1,0.4,1.3,0c0.4-0.4,0.4-1,0-1.3l-0.9-0.9h1.7
		c0.3,0,0.5-0.2,0.5-0.5c0-0.3-0.2-0.5-0.5-0.5h-2.7L22,20.7h7.9l3.9,3.9c0.4,0.4,1,0.4,1.3,0c0.4-0.4,0.4-1,0-1.3l-2.6-2.6h3.2
		c1,0,1.9-0.8,1.9-1.9v0H0z"/>
	<path fill="#6ACAD8" d="M138.5,22h-1.8l1.5,1.5c0.2,0.2,0.2,0.5,0,0.8c-0.2,0.2-0.5,0.2-0.8,0l-2.2-2.2h-4.5l2.4,2.4h1.5
		c0.2,0,0.3,0.1,0.3,0.3c0,0.2-0.1,0.3-0.3,0.3h-1l0.5,0.5c0.2,0.2,0.2,0.5,0,0.8c-0.2,0.2-0.5,0.2-0.8,0l-0.6-0.6v1.2
		c0,0.2-0.1,0.3-0.3,0.3c-0.2,0-0.3-0.1-0.3-0.3V25c0,0,0,0,0,0l-2.3-2.3v4.7l2.1,2.1c0.2,0.2,0.2,0.5,0,0.8c-0.2,0.2-0.5,0.2-0.8,0
		l-1.3-1.3v1.6c0,0.6-0.5,1.1-1.1,1.1c-0.6,0-1.1-0.5-1.1-1.1v-1.6l-1.4,1.3c-0.2,0.2-0.5,0.2-0.8,0c-0.2-0.2-0.2-0.5,0-0.8l2.1-2.1
		v-4.7l-2.2,2.2c0,0,0,0.1,0,0.1v1.7c0,0.2-0.1,0.3-0.3,0.3c-0.2,0-0.3-0.1-0.3-0.3v-1.2l-0.7,0.7c-0.2,0.2-0.5,0.2-0.8,0
		c-0.2-0.2-0.2-0.5,0-0.8l0.5-0.5h-0.9c-0.2,0-0.3-0.1-0.3-0.3c0-0.2,0.1-0.3,0.3-0.3h1.5l2.4-2.4h-4.5l-2.2,2.2
		c-0.2,0.2-0.5,0.2-0.8,0c-0.2-0.2-0.2-0.5,0-0.8l1.5-1.5h-1.8c-0.6,0-1.1-0.5-1.1-1.1c0-0.6,0.5-1.1,1.1-1.1h1.6l-1.2-1.2
		c-0.2-0.2-0.2-0.5,0-0.8c0.2-0.2,0.5-0.2,0.8,0l2,2h4.7l-2-2h-1.7c-0.2,0-0.3-0.1-0.3-0.3c0-0.2,0.1-0.3,0.3-0.3h1.1l-0.9-0.9
		c-0.2-0.2-0.2-0.5,0-0.8c0.2-0.2,0.5-0.2,0.8,0l0.9,0.9v-1.1c0-0.2,0.1-0.3,0.3-0.3c0.2,0,0.3,0.1,0.3,0.3v1.7l2,2v-4.3l-2.1-2.1
		c-0.2-0.2-0.2-0.5,0-0.8c0.2-0.2,0.5-0.2,0.8,0l1.4,1.4v-1.9c0-0.6,0.5-1.1,1.1-1.1c0.6,0,1.1,0.5,1.1,1.1v1.9l1.3-1.4
		c0.2-0.2,0.5-0.2,0.8,0c0.2,0.2,0.2,0.5,0,0.8l-2.1,2.1v4.3l2.3-2.3v-1.6c0-0.2,0.1-0.3,0.3-0.3c0.2,0,0.3,0.1,0.3,0.3v1l0.6-0.6
		c0.2-0.2,0.5-0.2,0.8,0c0.2,0.2,0.2,0.5,0,0.8l-0.7,0.7h1.1c0.2,0,0.3,0.1,0.3,0.3c0,0.2-0.1,0.3-0.3,0.3H133l-2.2,2.2h4.7l2-2
		c0.2-0.2,0.5-0.2,0.8,0c0.2,0.2,0.2,0.5,0,0.8l-1.2,1.2h1.6c0.6,0,1.1,0.5,1.1,1.1C139.6,21.5,139.1,22,138.5,22z"/>
	<path fill="#5AB4BB" d="M118.5,20.9L118.5,20.9c0,0.6,0.5,1,1,1h1.8l-1.4,1.4c-0.2,0.2-0.2,0.5,0,0.7c0.2,0.2,0.5,0.2,0.7,0
		l2.2-2.2h4.4l-2.3,2.3h-1.5c-0.2,0-0.3,0.1-0.3,0.3c0,0.2,0.1,0.3,0.3,0.3h0.9l-0.5,0.5c-0.2,0.2-0.2,0.5,0,0.7
		c0.2,0.2,0.5,0.2,0.7,0l0.7-0.7v1.2c0,0.2,0.1,0.3,0.3,0.3c0.2,0,0.3-0.1,0.3-0.3v-1.7c0,0,0-0.1,0-0.1l2.2-2.2v4.6l-2.1,2.1
		c-0.2,0.2-0.2,0.5,0,0.7c0.2,0.2,0.5,0.2,0.7,0l1.3-1.3v1.5c0,0.6,0.5,1,1,1c0.6,0,1-0.5,1-1v-1.5l1.3,1.3c0.2,0.2,0.5,0.2,0.7,0
		c0.2-0.2,0.2-0.5,0-0.7l-2.1-2.1v-4.6l2.2,2.2c0,0,0,0,0,0v1.7c0,0.2,0.1,0.3,0.3,0.3c0.2,0,0.3-0.1,0.3-0.3v-1.2l0.6,0.6
		c0.2,0.2,0.5,0.2,0.7,0c0.2-0.2,0.2-0.5,0-0.7l-0.5-0.5h0.9c0.2,0,0.3-0.1,0.3-0.3c0-0.2-0.1-0.3-0.3-0.3h-1.5l-2.3-2.3h4.4
		l2.2,2.2c0.2,0.2,0.5,0.2,0.7,0c0.2-0.2,0.2-0.5,0-0.7l-1.4-1.4h1.8c0.6,0,1-0.5,1-1v0H118.5z"/>
</g>
</svg>
