<?xml version="1.0" encoding="utf-8"?>
<!-- Generator: Adobe Illustrator 18.1.1, SVG Export Plug-In . SVG Version: 6.00 Build 0)  -->
<svg version="1.1" id="Layer_1" xmlns="http://www.w3.org/2000/svg" xmlns:xlink="http://www.w3.org/1999/xlink" x="0px" y="0px"
	 viewBox="0 0 64.5 46.5" enable-background="new 0 0 64.5 46.5" xml:space="preserve">
<g opacity="0.2">
	<path fill="#348DC0" d="M0,32c0-7.8,2.6-14.4,7.7-19.8C12.9,6.8,20.6,2.7,30.7,0v6.9c-3.2,1-5.9,2.2-8.1,3.7
		c-2.2,1.5-4,3.2-5.3,5.2c-1.3,1.9-1.9,3.8-1.9,5.5c0,1.2,0.4,2.1,1.2,2.9c0.8,0.8,2.3,1.8,4.6,3c3.9,2.1,5.8,5.2,5.8,9.3
		c0,3.1-1.1,5.5-3.3,7.3c-2.2,1.8-5.2,2.7-8.8,2.7c-4.3,0-7.8-1.4-10.6-4.1C1.4,39.7,0,36.2,0,32z M33.8,32c0-7.8,2.6-14.4,7.7-19.8
		C46.7,6.8,54.4,2.7,64.5,0v6.9c-3.2,1-5.9,2.2-8.1,3.7c-2.2,1.5-4,3.2-5.3,5.2c-1.3,1.9-1.9,3.8-1.9,5.5c0,1.2,0.4,2.1,1.2,2.9
		c0.8,0.8,2.3,1.8,4.6,3c3.9,2.1,5.8,5.2,5.8,9.3c0,3.1-1.1,5.5-3.3,7.3c-2.2,1.8-5.2,2.7-8.8,2.7c-4.3,0-7.8-1.4-10.6-4.1
		C35.2,39.7,33.8,36.2,33.8,32z"/>
</g>
</svg>
