<?xml version="1.0" encoding="utf-8"?>
<!-- Generator: Adobe Illustrator 18.1.1, SVG Export Plug-In . SVG Version: 6.00 Build 0)  -->
<svg version="1.1" id="Layer_1" xmlns="http://www.w3.org/2000/svg" xmlns:xlink="http://www.w3.org/1999/xlink" x="0px" y="0px"
	 viewBox="0 0 109.3 93.9" enable-background="new 0 0 109.3 93.9" xml:space="preserve">
<g>
	<g>
		<path fill="#4B5763" d="M89.5,55.8V43.3h4.4c0.7,0,1.3-0.6,1.3-1.3c0-0.7-0.6-1.3-1.3-1.3h-4.4v-2.6h4.4c0.7,0,1.3-0.6,1.3-1.3
			c0-0.7-0.6-1.3-1.3-1.3h-4.4v-2.6h4.4c0.7,0,1.3-0.6,1.3-1.3c0-0.7-0.6-1.3-1.3-1.3h-4.4v-2.6h4.4c0.7,0,1.3-0.6,1.3-1.3
			c0-0.7-0.6-1.3-1.3-1.3h-4.4v-2.6h4.4c0.7,0,1.3-0.6,1.3-1.3c0-0.7-0.6-1.3-1.3-1.3h-4.4v-2.6h4.4c0.7,0,1.3-0.6,1.3-1.3
			c0-0.7-0.6-1.3-1.3-1.3h-4.4V9.3c0-5.1-4.2-9.3-9.3-9.3c-5.1,0-9.3,4.2-9.3,9.3v46.5c-5,3.1-8.4,8.7-8.4,15
			c0,9.8,7.9,17.7,17.7,17.7c9.8,0,17.7-7.9,17.7-17.7C97.8,64.5,94.5,58.9,89.5,55.8z"/>
		<path fill="#3C444F" d="M89.5,55.8V43.3h4.4c0.7,0,1.3-0.6,1.3-1.3c0-0.7-0.6-1.3-1.3-1.3h-4.4v-2.6h4.4c0.7,0,1.3-0.6,1.3-1.3
			c0-0.7-0.6-1.3-1.3-1.3h-4.4v-2.6h4.4c0.7,0,1.3-0.6,1.3-1.3c0-0.7-0.6-1.3-1.3-1.3h-4.4v-2.6h4.4c0.7,0,1.3-0.6,1.3-1.3
			c0-0.7-0.6-1.3-1.3-1.3h-4.4v-2.6h4.4c0.7,0,1.3-0.6,1.3-1.3c0-0.7-0.6-1.3-1.3-1.3h-4.4v-2.6h4.4c0.7,0,1.3-0.6,1.3-1.3
			c0-0.7-0.6-1.3-1.3-1.3h-4.4V9.3c0-5.1-4.2-9.3-9.3-9.3v88.5c9.8,0,17.7-7.9,17.7-17.7C97.8,64.5,94.5,58.9,89.5,55.8z"/>
		<path fill="#CBCFD3" d="M80.2,86.6c-8.7,0-15.8-7.1-15.8-15.8c0-5.5,2.8-10.5,7.5-13.4l0.9-0.5V9.3c0-4.1,3.3-7.4,7.4-7.4
			c4.1,0,7.4,3.3,7.4,7.4v47.5l0.9,0.5c4.7,2.9,7.5,7.9,7.5,13.4C96,79.5,88.9,86.6,80.2,86.6z"/>
		<path fill="#B2B5B9" d="M88.5,57.4l-0.9-0.5V9.3c0-4.1-3.3-7.4-7.4-7.4v84.8c8.7,0,15.8-7.1,15.8-15.8
			C96,65.3,93.2,60.3,88.5,57.4z"/>
		<path fill="#6ACAD8" d="M86.9,59.9l-2.3-1.4V46.1c0-2.4-2-4.4-4.4-4.4s-4.4,2-4.4,4.4v12.4l-2.3,1.4c-3.8,2.4-6.1,6.4-6.1,10.9
			c0,7.1,5.7,12.8,12.8,12.8c7.1,0,12.8-5.7,12.8-12.8C93,66.4,90.7,62.3,86.9,59.9z M79.9,80.8c-0.1,0-0.2,0-0.3,0
			c-3.3,0-5.8-1-7.5-2.8c-2.8-3.1-2.4-7.6-2.4-7.8c0-0.3,0.3-0.5,0.6-0.5c0.3,0,0.5,0.3,0.5,0.6c0,0-0.4,4.2,2.1,6.9
			c1.5,1.7,3.9,2.5,7,2.5c0.3,0,0.6,0.2,0.6,0.5C80.5,80.5,80.2,80.8,79.9,80.8z"/>
		<path fill="#5AB4BB" d="M86.9,59.9l-2.3-1.4V46.1c0-2.4-2-4.4-4.4-4.4v38.1c0.2,0.1,0.3,0.3,0.3,0.5c0,0.2-0.1,0.4-0.3,0.5v2.9
			c7.1,0,12.8-5.7,12.8-12.8C93,66.4,90.7,62.3,86.9,59.9z"/>
	</g>
	<g>
		<path fill="#4B5763" d="M27,55.8V43.3h4.4c0.7,0,1.3-0.6,1.3-1.3c0-0.7-0.6-1.3-1.3-1.3H27v-2.6h4.4c0.7,0,1.3-0.6,1.3-1.3
			c0-0.7-0.6-1.3-1.3-1.3H27v-2.6h4.4c0.7,0,1.3-0.6,1.3-1.3c0-0.7-0.6-1.3-1.3-1.3H27v-2.6h4.4c0.7,0,1.3-0.6,1.3-1.3
			c0-0.7-0.6-1.3-1.3-1.3H27v-2.6h4.4c0.7,0,1.3-0.6,1.3-1.3c0-0.7-0.6-1.3-1.3-1.3H27v-2.6h4.4c0.7,0,1.3-0.6,1.3-1.3
			c0-0.7-0.6-1.3-1.3-1.3H27V9.3C27,4.2,22.8,0,17.7,0c-5.1,0-9.3,4.2-9.3,9.3v46.5c-5,3.1-8.4,8.7-8.4,15c0,9.8,7.9,17.7,17.7,17.7
			c9.8,0,17.7-7.9,17.7-17.7C35.3,64.5,32,58.9,27,55.8z"/>
		<path fill="#3C444F" d="M27,55.8V43.3h4.4c0.7,0,1.3-0.6,1.3-1.3c0-0.7-0.6-1.3-1.3-1.3H27v-2.6h4.4c0.7,0,1.3-0.6,1.3-1.3
			c0-0.7-0.6-1.3-1.3-1.3H27v-2.6h4.4c0.7,0,1.3-0.6,1.3-1.3c0-0.7-0.6-1.3-1.3-1.3H27v-2.6h4.4c0.7,0,1.3-0.6,1.3-1.3
			c0-0.7-0.6-1.3-1.3-1.3H27v-2.6h4.4c0.7,0,1.3-0.6,1.3-1.3c0-0.7-0.6-1.3-1.3-1.3H27v-2.6h4.4c0.7,0,1.3-0.6,1.3-1.3
			c0-0.7-0.6-1.3-1.3-1.3H27V9.3C27,4.2,22.8,0,17.7,0v88.5c9.8,0,17.7-7.9,17.7-17.7C35.3,64.5,32,58.9,27,55.8z"/>
		<path fill="#CBCFD3" d="M17.7,86.6c-8.7,0-15.8-7.1-15.8-15.8c0-5.5,2.8-10.5,7.5-13.4l0.9-0.5V9.3c0-4.1,3.3-7.4,7.4-7.4
			s7.4,3.3,7.4,7.4v47.5l0.9,0.5c4.7,2.9,7.5,7.9,7.5,13.4C33.5,79.5,26.4,86.6,17.7,86.6z"/>
		<path fill="#B2B5B9" d="M26,57.4l-0.9-0.5V9.3c0-4.1-3.3-7.4-7.4-7.4v84.8c8.7,0,15.8-7.1,15.8-15.8C33.5,65.3,30.7,60.3,26,57.4z
			"/>
		<path fill="#F05A24" d="M24.4,59.9l-2.3-1.4V19.3c0-2.4-2-4.4-4.4-4.4s-4.4,2-4.4,4.4v39.2l-2.3,1.4c-3.8,2.4-6.1,6.4-6.1,10.9
			c0,7.1,5.7,12.8,12.8,12.8s12.8-5.7,12.8-12.8C30.5,66.4,28.2,62.3,24.4,59.9z M17.4,80.8c-0.1,0-0.2,0-0.3,0
			c-3.3,0-5.8-1-7.5-2.8c-2.8-3.1-2.4-7.6-2.4-7.8c0-0.3,0.3-0.5,0.6-0.5c0.3,0,0.5,0.3,0.5,0.6c0,0-0.4,4.2,2.1,6.9
			c1.5,1.7,3.9,2.5,6.9,2.5c0.3,0,0.6,0.2,0.6,0.5C18,80.5,17.7,80.8,17.4,80.8z"/>
		<path opacity="0.4" fill="#F05A24" d="M24.4,59.9l-2.3-1.4V19.3c0-2.4-2-4.4-4.4-4.4v64.8c0.2,0.1,0.3,0.3,0.3,0.5
			c0,0.2-0.1,0.4-0.3,0.5v2.9c7.1,0,12.8-5.7,12.8-12.8C30.5,66.4,28.2,62.3,24.4,59.9z"/>
	</g>
	<g>
		<circle fill="#4B5763" cx="33.7" cy="80.9" r="13"/>
		<path fill="#3C444F" d="M33.7,67.9v26c7.2,0,13-5.8,13-13C46.7,73.7,40.9,67.9,33.7,67.9z"/>
		<path fill="#FFFFFF" d="M33.7,93.1c-6.7,0-12.2-5.5-12.2-12.2c0-6.7,5.5-12.2,12.2-12.2c6.7,0,12.2,5.5,12.2,12.2
			C45.9,87.6,40.4,93.1,33.7,93.1z"/>
		<path fill="#E3E2E2" d="M33.7,68.8L33.7,68.8v24.3l0,0c6.7,0,12.2-5.5,12.2-12.2C45.9,74.2,40.4,68.8,33.7,68.8z"/>
		<path fill="#FFCE00" d="M33.1,73.6V72c0-0.3,0.3-0.6,0.6-0.6c0.3,0,0.6,0.3,0.6,0.6v1.5l0,0c0,0.2-0.1,0.3-0.2,0.4
			c-0.1,0.1-0.2,0.1-0.4,0.1h0l0,0C33.4,74.1,33.1,73.9,33.1,73.6L33.1,73.6z"/>
		<path fill="#FFCE00" d="M27.4,74.6c0.1-0.1,0.2-0.2,0.4-0.2c0.1,0,0.3,0.1,0.4,0.2l1,1c0.1,0.1,0.2,0.2,0.2,0.4
			c0,0.1-0.1,0.3-0.2,0.4c-0.2,0.2-0.5,0.2-0.8,0l-1-1c-0.1-0.1-0.2-0.2-0.2-0.4C27.2,74.8,27.3,74.7,27.4,74.6z"/>
		<path fill="#FFCE00" d="M26.3,81.5h-1.5c-0.3,0-0.6-0.3-0.6-0.6c0-0.3,0.3-0.6,0.6-0.6h1.5c0.3,0,0.6,0.3,0.6,0.6
			C26.9,81.2,26.7,81.5,26.3,81.5z"/>
		<path fill="#FFCE00" d="M29.1,86.3l-1,1c-0.2,0.2-0.5,0.2-0.8,0c-0.1-0.1-0.2-0.2-0.2-0.4c0-0.1,0.1-0.3,0.2-0.4l1-1
			c0.1-0.1,0.2-0.2,0.4-0.2c0.1,0,0.3,0.1,0.4,0.2c0.1,0.1,0.2,0.2,0.2,0.4C29.3,86,29.2,86.2,29.1,86.3z"/>
		<path fill="#FFCE00" d="M34.3,89.8L34.3,89.8c0,0.1,0,0.2-0.1,0.3c-0.1,0.1-0.3,0.2-0.4,0.2h0l0,0c-0.3,0-0.6-0.3-0.6-0.6l0,0
			v-1.5c0-0.1,0-0.1,0-0.2c0,0,0,0,0,0c0.1-0.2,0.3-0.3,0.5-0.3c0.3,0,0.6,0.3,0.6,0.6V89.8z"/>
		<circle fill="#FFCE00" cx="33.7" cy="80.9" r="5.5"/>
		<path fill="#FFCE00" d="M40,87.2c-0.2,0.2-0.5,0.2-0.8,0l-1-1c-0.1-0.1-0.2-0.2-0.2-0.4c0-0.1,0.1-0.3,0.2-0.4
			c0.1-0.1,0.2-0.2,0.4-0.2c0.1,0,0.3,0.1,0.4,0.2l1,1c0.1,0.1,0.2,0.2,0.2,0.4C40.2,87,40.1,87.1,40,87.2z"/>
		<path fill="#FFCE00" d="M40,75.4l-1,1c-0.2,0.2-0.5,0.2-0.8,0c-0.1-0.1-0.2-0.2-0.2-0.4c0-0.1,0.1-0.3,0.2-0.4l1-1
			c0.1-0.1,0.2-0.2,0.4-0.2c0.1,0,0.3,0.1,0.4,0.2c0.1,0.1,0.2,0.2,0.2,0.4C40.2,75.1,40.1,75.2,40,75.4z"/>
		<path fill="#FFCE00" d="M42.6,81.5h-1.5c-0.3,0-0.6-0.3-0.6-0.6c0-0.3,0.3-0.6,0.6-0.6h1.5c0.3,0,0.6,0.3,0.6,0.6
			C43.1,81.2,42.9,81.5,42.6,81.5z"/>
		<path fill="#FFCE00" d="M27.4,74.6c0.1-0.1,0.2-0.2,0.4-0.2c0.1,0,0.3,0.1,0.4,0.2l1,1c0.1,0.1,0.2,0.2,0.2,0.4
			c0,0.1-0.1,0.3-0.2,0.4c-0.2,0.2-0.5,0.2-0.8,0l-1-1c-0.1-0.1-0.2-0.2-0.2-0.4C27.2,74.8,27.3,74.7,27.4,74.6z"/>
		<path fill="#FFCE00" d="M26.3,81.5h-1.5c-0.3,0-0.6-0.3-0.6-0.6c0-0.3,0.3-0.6,0.6-0.6h1.5c0.3,0,0.6,0.3,0.6,0.6
			C26.9,81.2,26.7,81.5,26.3,81.5z"/>
		<path fill="#FFCE00" d="M29.1,86.3l-1,1c-0.2,0.2-0.5,0.2-0.8,0c-0.1-0.1-0.2-0.2-0.2-0.4c0-0.1,0.1-0.3,0.2-0.4l1-1
			c0.1-0.1,0.2-0.2,0.4-0.2c0.1,0,0.3,0.1,0.4,0.2c0.1,0.1,0.2,0.2,0.2,0.4C29.3,86,29.2,86.2,29.1,86.3z"/>
		<path opacity="0.4" fill="#FFCE00" d="M40,87.2c-0.2,0.2-0.5,0.2-0.8,0l-1-1c-0.1-0.1-0.2-0.2-0.2-0.4c0-0.1,0.1-0.3,0.2-0.4
			c0.1-0.1,0.2-0.2,0.4-0.2c0.1,0,0.3,0.1,0.4,0.2l1,1c0.1,0.1,0.2,0.2,0.2,0.4C40.2,87,40.1,87.1,40,87.2z"/>
		<path opacity="0.4" fill="#FFCE00" d="M40,75.4l-1,1c-0.2,0.2-0.5,0.2-0.8,0c-0.1-0.1-0.2-0.2-0.2-0.4c0-0.1,0.1-0.3,0.2-0.4l1-1
			c0.1-0.1,0.2-0.2,0.4-0.2c0.1,0,0.3,0.1,0.4,0.2c0.1,0.1,0.2,0.2,0.2,0.4C40.2,75.1,40.1,75.2,40,75.4z"/>
		<path opacity="0.4" fill="#FFCE00" d="M42.6,81.5h-1.5c-0.3,0-0.6-0.3-0.6-0.6c0-0.3,0.3-0.6,0.6-0.6h1.5c0.3,0,0.6,0.3,0.6,0.6
			C43.1,81.2,42.9,81.5,42.6,81.5z"/>
		<path opacity="0.4" fill="#FFCE00" d="M33.7,71.5L33.7,71.5l0,2.7l0,0h0c0.1,0,0.3-0.1,0.4-0.1c0.1-0.1,0.2-0.3,0.2-0.4l0,0V72
			C34.3,71.7,34,71.5,33.7,71.5z"/>
		<path opacity="0.4" fill="#FFCE00" d="M33.7,75.5L33.7,75.5l0,10.9h0c3,0,5.5-2.4,5.5-5.5S36.7,75.5,33.7,75.5z"/>
		<path opacity="0.4" fill="#FFCE00" d="M33.7,87.7L33.7,87.7l0,2.7l0,0h0c0.2,0,0.3-0.1,0.4-0.2c0.1-0.1,0.1-0.2,0.1-0.3l0,0v-1.5
			C34.3,88,34,87.7,33.7,87.7z"/>
	</g>
	<g>
		<circle fill="#4B5763" cx="96.3" cy="80.4" r="13"/>
		<path fill="#3C444F" d="M96.3,67.4L96.3,67.4v26l0,0c7.2,0,13-5.8,13-13C109.3,73.2,103.5,67.4,96.3,67.4z"/>
		<path fill="#FFFFFF" d="M96.3,92.5c-6.7,0-12.2-5.5-12.2-12.2c0-6.7,5.5-12.2,12.2-12.2c6.7,0,12.2,5.5,12.2,12.2
			C108.5,87.1,103,92.5,96.3,92.5z"/>
		<path fill="#E3E2E2" d="M96.3,68.2L96.3,68.2v24.3l0,0c6.7,0,12.2-5.5,12.2-12.2C108.5,73.6,103,68.2,96.3,68.2z"/>
		<path fill="#6ACAD8" d="M104.8,81.1h-1.6l1.3,1.3c0.2,0.2,0.2,0.5,0,0.7c-0.2,0.2-0.5,0.2-0.7,0l-2-2h-3.9l2.1,2.1h1.4
			c0.1,0,0.3,0.1,0.3,0.3c0,0.1-0.1,0.3-0.3,0.3h-0.9l0.4,0.4c0.2,0.2,0.2,0.5,0,0.7c-0.2,0.2-0.5,0.2-0.7,0l-0.6-0.6v1.1
			c0,0.1-0.1,0.3-0.3,0.3c-0.1,0-0.3-0.1-0.3-0.3v-1.5c0,0,0,0,0,0l-2-2v4.2l1.9,1.9c0.2,0.2,0.2,0.5,0,0.7c-0.2,0.2-0.5,0.2-0.7,0
			l-1.2-1.2v1.4c0,0.5-0.4,0.9-0.9,0.9c-0.5,0-0.9-0.4-0.9-0.9v-1.4l-1.2,1.2c-0.2,0.2-0.5,0.2-0.7,0c-0.2-0.2-0.2-0.5,0-0.7
			l1.9-1.9v-4.2l-2,2c0,0,0,0,0,0.1v1.5c0,0.1-0.1,0.3-0.3,0.3c-0.1,0-0.3-0.1-0.3-0.3v-1.1l-0.6,0.6c-0.2,0.2-0.5,0.2-0.7,0
			c-0.2-0.2-0.2-0.5,0-0.7l0.4-0.4h-0.8c-0.1,0-0.3-0.1-0.3-0.3c0-0.1,0.1-0.3,0.3-0.3h1.3l2.1-2.1h-4l-2,2c-0.2,0.2-0.5,0.2-0.7,0
			c-0.2-0.2-0.2-0.5,0-0.7l1.3-1.3h-1.6c-0.5,0-0.9-0.4-0.9-0.9c0-0.5,0.4-0.9,0.9-0.9h1.4l-1.1-1.1c-0.2-0.2-0.2-0.5,0-0.7
			c0.2-0.2,0.5-0.2,0.7,0l1.8,1.8h4.2l-1.8-1.8h-1.5c-0.1,0-0.3-0.1-0.3-0.3c0-0.1,0.1-0.3,0.3-0.3h1l-0.8-0.8
			c-0.2-0.2-0.2-0.5,0-0.7c0.2-0.2,0.5-0.2,0.7,0l0.8,0.8v-1c0-0.1,0.1-0.3,0.3-0.3c0.1,0,0.3,0.1,0.3,0.3v1.5l1.8,1.8v-3.8
			l-1.9-1.9c-0.2-0.2-0.2-0.5,0-0.7c0.2-0.2,0.5-0.2,0.7,0l1.2,1.2v-1.7c0-0.5,0.4-0.9,0.9-0.9c0.5,0,0.9,0.4,0.9,0.9v1.7l1.2-1.2
			c0.2-0.2,0.5-0.2,0.7,0c0.2,0.2,0.2,0.5,0,0.7l-1.9,1.9v3.8l2-2v-1.4c0-0.1,0.1-0.3,0.3-0.3c0.1,0,0.3,0.1,0.3,0.3V76l0.6-0.6
			c0.2-0.2,0.5-0.2,0.7,0c0.2,0.2,0.2,0.5,0,0.7l-0.6,0.6h1c0.1,0,0.3,0.1,0.3,0.3c0,0.1-0.1,0.3-0.3,0.3h-1.5l-2,2h4.1l1.8-1.8
			c0.2-0.2,0.5-0.2,0.7,0c0.2,0.2,0.2,0.5,0,0.7l-1.1,1.1h1.4c0.5,0,0.9,0.4,0.9,0.9C105.7,80.7,105.3,81.1,104.8,81.1z"/>
		<path fill="#5AB4BB" d="M104.8,79.2h-1.4l1.1-1.1c0.2-0.2,0.2-0.5,0-0.7c-0.2-0.2-0.5-0.2-0.7,0l-1.8,1.8h-4.1l2-2h1.5
			c0.1,0,0.3-0.1,0.3-0.3c0-0.1-0.1-0.3-0.3-0.3h-1l0.6-0.6c0.2-0.2,0.2-0.5,0-0.7c-0.2-0.2-0.5-0.2-0.7,0L99.7,76v-0.9
			c0-0.1-0.1-0.3-0.3-0.3c-0.1,0-0.3,0.1-0.3,0.3v1.4l-2,2v-3.8l1.9-1.9c0.2-0.2,0.2-0.5,0-0.7c-0.2-0.2-0.5-0.2-0.7,0l-1.2,1.2
			v-1.7c0-0.5-0.4-0.9-0.9-0.9v18.9c0.5,0,0.9-0.4,0.9-0.9v-1.4l1.2,1.2c0.2,0.2,0.5,0.2,0.7,0c0.2-0.2,0.2-0.5,0-0.7l-1.9-1.9v-4.2
			l2,2c0,0,0,0,0,0v1.5c0,0.1,0.1,0.3,0.3,0.3c0.1,0,0.3-0.1,0.3-0.3v-1.1l0.6,0.6c0.2,0.2,0.5,0.2,0.7,0c0.2-0.2,0.2-0.5,0-0.7
			l-0.4-0.4h0.9c0.1,0,0.3-0.1,0.3-0.3c0-0.1-0.1-0.3-0.3-0.3H100l-2.1-2.1h3.9l2,2c0.2,0.2,0.5,0.2,0.7,0c0.2-0.2,0.2-0.5,0-0.7
			l-1.3-1.3h1.6c0.5,0,0.9-0.4,0.9-0.9C105.7,79.6,105.3,79.2,104.8,79.2z"/>
	</g>
</g>
</svg>
